<?xml version="1.0" encoding="UTF-8"?>
<svg width="752pt" height="752pt" version="1.1" viewBox="0 0 752 752" xmlns="http://www.w3.org/2000/svg">
 <path d="m377.57 533.6c8.4141-0.019531 11.672 3.0156 11.672 11.496v48.738c0 10.016-7.0273 11.031-15.105 11.305-4.4336 0.15234-12.77 1.7695-16.324 4.543-0.94531 0.96875-3.6289 0.65234-5.0195 0.65234h-14.73c-4.5 0-9.7188-2-12.055-6.0469-1.6523-2.8633-2.7383-7.5156-3.2812-13.145l-4.668 0.058594c-0.91406 6.9453-4.3008 11.23-11.77 11.23h-12.051c-5.793 0-8.9336-4.0234-8.9336-9.582l0.011718-1.6484-5.9609-0.0625c-2.0781-0.03125-3.6719-0.61719-5.2461-1.9883l-4.7227-4.125c-2.1133-1.8477-3.1562-4.4844-3.1562-7.2656v-20.066c0-2.9102 0.97656-5.5586 3.2109-7.4961l4.6406-4.0234c1.5586-1.2578 3.4648-1.9336 5.4688-1.9336h5.6641l-0.074219-33.93c-0.054687-25.184-0.054687-50.023 8.2188-74.145-11.414 7-27.707 15.793-35.977 25.605-11.109 13.176-23.504 20.082-35.391 22.184-24.32 4.3008-47.047-11.664-51.371-36.137-5.8281-32.965 19.414-58.316 52.484-54.762 25.027 2.6875 43.777 2.1016 59.785-2.6055 0.035157-0.011719 0.074219-0.023437 0.10938-0.03125 1.2305-18.258 4.6445-34.285 9.4922-48.633 4.9961-14.781 11.5-27.75 18.695-39.523 8.7578-14.328 6.8984-32.562-8.0391-41.695-6.9961-4.2773-14.105-5.125-22.137-4.9414l-5.5781 29.871c-3.043 16.312-34.961 9.4141-32.016-5.8711l5.8086-30.152c-2.9922-1.1562-5.8711-2.4688-8.5117-3.9336-8.125-4.5039-16.348-11.832-14.633-22.043 2.2461-13.387 1.4609-27.977 16.762-33.348-5.9727-2.1445-7.3125-7.2578-7.0664-13.113 0.17578-4.2188 1.3242-8.8086 3.1016-12.633 0.87891-1.8906 1.6055-3.25 2.4336-4.2969 2.1016-3.125 8.0391-3.8203 11.641-4.2109 1.457-0.16016 2.9375-0.24609 4.3711-0.20313l1.1484-6.7227c0.87109-5.1016 4.668-6.3867 9.6484-7.043 9.6602-1.2695 23.984 1.4922 32.477 6.2734 4.5586 2.5664 7.3359 5.0312 6.3125 10.234l-1.3906 7.0703 8.6758 5.543c2.8047 1.793 4.3008 3.3672 5.1055 5 1.4688 2.9844 0.63281 7.1562 0.089843 10.25-0.42969 2.4727-1 5.1211-1.4531 6.8867-0.89453 3.4609-2.3398 6.1328-5.082 7.9531-0.042969 0.027344-0.082031 0.054687-0.125 0.082031 5.3008 2.4336 8.5195 6.1484 12.445 10.078l46.301 46.34c3.6211 3.625 6.5117 7.3008 8.0508 11.906 1.2734 3.8008 1.5898 8.1367 0.58594 13.453 5.9492-0.875 10.547-3.1289 15.363-5.4922 4.5156-2.2148 9.2109-4.5195 15.336-6.0117l0.039063-4.4219c-3.8867-2.8711-5.5234-7.0312-5.4844-11.781 0.070312-8.0352 0.23828-16.098 0.30469-24.141 0.16406-21.613 39.336-21.129 39.152 0.33984l-0.1875 22.023c0.14062 5.6992-1.8867 10.156-6.5078 13.465l-0.042968 4.7852c15.414 4.3828 26.688 15.863 35.543 28.773 9.6602 14.082 21.66 21.41 35.566 30.582 63.66 41.988 54.234 87.309 54.129 151.73l-0.10156 61.395h5.6914c2.0039 0 3.9102 0.67578 5.4688 1.9336l4.6406 4.0234c2.2305 1.9336 3.2109 4.582 3.2109 7.4961v20.066c0 2.7773-1.0391 5.418-3.1562 7.2656l-4.7227 4.125c-1.5742 1.375-3.168 1.957-5.2461 1.9883l-5.9648 0.0625v1.1289c0.16016 5.7656-2.9219 10.098-8.9844 10.098h-12.172c-4.1602 0-7.2266-1.2656-9.3203-4.125-1.293-1.7695-2.1289-4.1055-2.5312-7.1016l-5.4961-0.0625c-0.54297 5.6328-1.6289 10.281-3.2812 13.145-2.3359 4.0508-7.5586 6.0469-12.055 6.0469h-15.184c-1.3438 0-3.5625 0.30469-4.5664-0.65234-3.5508-2.7734-11.891-4.3945-16.324-4.543-8.0781-0.27344-15.105-1.2891-15.105-11.305v-48.738c0-4.1953 0.73047-7.0039 2.6797-8.9102 1.9375-1.8945 4.7695-2.5938 8.9922-2.5859 3.5391 0.007812 7.8398-0.67969 10.875-2.7852 7.2695-5.0391 20.984-6.5781 28.301-2.3008 4.5508 2.8555 8.1719 9.0742 10.816 17.266 2.7617-1.9844 5.8867-1.5391 9.1016-1.5391l0.11719-33.93c0.1875-54.902-12.059-85.988-68.129-101.67-40.539-11.34-73.461-13.848-113.89 0.42188-18.422 19.867-27.125 74.863-27.516 101.28l-0.50391 33.902h3.7617c1.707 0 3.4648 0.49219 4.9102 1.4062 2.6406-8.1289 6.2461-14.645 10.773-17.484 3.3008-2.0703 8.0977-2.7344 12.863-2.4336 4.1992 0.26562 8.4688 1.2852 11.68 2.7422 6.1641 2.7969 6.5938 5.1445 14.629 5.1289zm-101.35-278.08c-7.5117-0.48047-15.355-2.125-22.496-4.4453l-5.6875 29.531c-1.7383 9.0234 20.879 14.043 22.719 4.1875l5.4648-29.277zm-19.711-95.113c-0.99609 0.003906-2.0312 0.074219-3.0703 0.1875-1.8359 0.19922-5.6953 0.71484-7.2891 1.4961-1.3477 0.66016-1.7656 2.082-0.089844 2.6836 5.793 2.0742 9.3359 3.4297 12.078 5.4922 4.8594 3.6523 4.3672 7.0391 6.9219 9.9375 3.0195 3.4297 14.973 5.4844 19.117 3.6836 3.4688-1.5039 4.2422-3.75 9.7305-5.1055 5.0508-1.25 13.398 0.10547 16.785-2.3086 1.9961-1.4219-0.007813-1.7773-1.0078-2.6992l-5.3008-3.3867c-1.8398 4.0664-8.4492 5.4727-16.281 5.043-6.1211-0.33594-12.633-1.5938-18.441-3.5547-7.9336-2.6797-13.777-6.7539-13.16-11.473zm41.762-8.082c-7.6055-4.2812-20.902-6.8555-29.555-5.7188-6.8438 0.89844-7.1328 2.5664-1.1484 5.9375 7.6055 4.2812 20.902 6.8555 29.555 5.7188 6.7227-0.88281 7.2305-2.5117 1.1484-5.9375zm-36.301 4.168-0.76562 4.4727c-0.39063 2.0234 4.0547 4.4375 9.9648 6.4336 5.375 1.8164 11.516 3.0039 17.184 3.3125 1.6406 0.089843 11.242 0.14453 11.793-2.4688l0.78125-3.9766c0.48438-2.3828 0.36719-2.1016-1.7461-1.6562-9.8438 2.0859-25.25-1.0664-33.922-5.9453-0.51562-0.28906-1.0039-0.58594-1.4648-0.89062-1.8047-1.1836-1.4297-1.5859-1.8242 0.71484zm-20.391 14.164c-0.71484 2.2734-1 4.25-1.0977 6.5664-0.11328 2.6758 0.20312 7.1328 3.2148 8.2109 3.8555 1.3789 8.8164 3.0195 12.199 5.5312 4.9922 3.7031 4.4375 7.0195 7.0586 9.9961 3.0195 3.4297 14.973 5.4844 19.117 3.6836 3.4688-1.5039 4.2422-3.75 9.7305-5.1055 5.6055-1.3867 14.508 0.24609 18.422-2.3438 1.6172-1.0703 2.5156-2.8281 3.1211-5.1758 0.39844-1.5469 0.92578-4.0508 1.3633-6.5352 0.30078-1.7148 0.44922-2.4414 0.54688-3.6328 0.18359-2.793-0.09375-2.7578-1.8242-1.5273-5.293 3.7734-12.234 1.5234-18.395 3.0469-4.832 1.1953-5.6328 3.3906-8.9922 4.8477-5.9961 2.6016-20.164 0.078125-24.539-4.8867-2.4766-2.8125-2.293-6.3555-6.1992-9.293-2.1797-1.6406-5.4453-2.8789-10.84-4.8086-2.3242-0.83203-2.4219-0.070313-2.8906 1.4258zm8.8438 22.52c-3.457 0.11328-12.098 3.0195-10.922 7.7227 0.28516 1.1406 1.0586 2.418 2.3086 3.7344 1.6016 1.6875 3.9102 3.3555 6.9219 4.832 13.562 6.6484 31.199 8.4023 46.094 6.8125 9.7305-1.0352 19.066 3.9453 25.82 10.605l46.332 45.668c2.9531 2.9102 5.3477 6.3438 8.2734 9.2695l0.22656 0.22656c0.82031-4.4258 0.57812-7.9688-0.44141-11.012-1.2617-3.7656-3.7617-6.9102-6.9219-10.074l-46.066-46.105c-5.2812-5.2852-8.9453-9.7305-17.199-11.07-3.5625-0.57812-8.6602-0.46484-11.906 0.33984-4.832 1.1953-5.6328 3.3906-8.9922 4.8477-5.9961 2.6016-20.164 0.078125-24.539-4.8867-2.5195-2.8594-2.2734-6.3281-6.3203-9.3281-0.75391-0.55859-1.6289-1.0742-2.6641-1.582zm71.977 393.25c-0.32031-7.707 0.21875-16.637 1.5742-25.156 0.57422-3.6172 1.3008-7.1758 2.1758-10.551-0.89844-1.2031-1.8945-1.7422-3.4375-1.7422h-3.832l-0.55859 37.5 4.082-0.050781zm184.04-54.27c-4.7969-3.0117-14.555-1.75-19.602 0.39844 4.0469 6.8867 6.9688 19.586 8.5625 32.863 1.8086 15.074 1.9375 31.086 0.074218 40.18h13.816c2.7617 0 6.5039-1.1406 7.9688-3.6797 1.7539-3.0352 2.75-8.5703 3.0352-15.281 0.55859-13.203-2.582-47.41-13.852-54.48zm22.496 16.82c-4.0781 0-4.9297-0.75-7.7188 1.8008 2.9102 11.273 4.2148 24.07 3.7344 35.648l4.8867 0.054687v-0.050781h0.007812zm-42.84-227.7c-9.293-6.6367-19.723-14.086-28.68-18.715-2.7617-1.4219-0.59766-5.6211 2.1641-4.1992 3.6914 1.9062 7.5898 4.2539 11.543 6.8164-14.254-19.363-28.027-33.762-54.414-30.016-8.125 1.1523-13.785 3.9297-19.172 6.5742-5.3672 2.6328-10.48 5.1445-17.426 6.0234 3.0938 4.6641 5.6484 10.781 5.6875 18.133 0.027344 5.668-1.4453 12.031-5.3398 18.965 34.613-14.766 61.449-7.3594 89.766 14.926 20.926 16.469 45.207 33.746 64.852 51.199 13.418 11.922 20.48 27.191 24.191 42.992-0.37109-34.551-7.3047-68.844-52.445-98.766-7.1914-4.7656-13.621-8.8555-20.727-13.934zm-75.715-90.184-0.11719 13.508c7.5977-6.5742 22.152-6.6211 29.719 0.03125l0.11328-13.164c0.13281-15.301-29.582-15.508-29.719-0.375zm27.793 29.328c0.16406-0.21875 0.31641-0.44531 0.46094-0.67578 0.86328-1.3711 1.3477-2.8867 1.3633-4.4648 0.125-14.578-29.801-14.516-29.922 0.035156-0.015625 1.6406 0.23438 3.1797 0.82812 4.5469l0.035156-4.3359c0.023438-3.1016 4.7422-3.0664 4.7188 0.035156l-0.12891 14.988c0.17578-0.027343 0.35156-0.054687 0.53125-0.078125 6.2617-0.89062 12.012-0.75781 17.309 0.19141l0.12891-15.137c0.023438-3.1016 4.7422-3.0664 4.7188 0.035156l-0.042969 4.8516zm-65.914 68.309c6.543-8.6367 8.8555-16.305 8.8203-22.82-0.035156-7.168-3.4453-13.727-7.9336-19.562-2.918-3.793-6.2891-7.2812-9.4805-10.43l-46.332-45.668c-5.707-5.625-13.75-10.152-22.012-9.2734-15.828 1.6875-34.254-0.21094-48.664-7.2773-3.5547-1.7422-6.3164-3.75-8.2734-5.8125-3.5547-3.75-3.0938-6.3828-4.9336-0.14844-1.5469 5.2422-1.8828 11.566-2.7148 16.539-1.3398 7.9688 6.1016 13.723 12.266 17.141 10.125 5.6133 26.746 9.9453 38.551 9.4727 9.6016-0.38672 17.715 1.7773 24.051 5.6523 17.172 10.496 19.738 31.617 9.6094 48.188-7.0352 11.512-13.387 24.168-18.25 38.559-4.5547 13.48-7.8125 28.496-9.1172 45.543 13.789-4.9766 25.801-13.328 38.551-25.656 16.359-15.82 31.605-27.055 45.867-34.441zm-86.215 65.695c-0.058594 0.019531-0.11719 0.039063-0.17578 0.054688-0.55078 0.17188-1.1016 0.33984-1.6562 0.50391-16.652 4.8945-35.969 5.5273-61.617 2.7695-29.934-3.2148-52.605 19.359-47.32 49.25 3.8477 21.766 23.969 36.164 45.895 32.289 10.863-1.9219 22.27-8.3203 32.598-20.574 9.1562-10.859 29.766-22.246 42.844-30.039 0.085938-0.058594 0.17578-0.11328 0.26562-0.16016 14.684-8.7344 30.609-17.41 46.652-23.246 0.41797-0.15234 0.83594-0.30078 1.2539-0.45313 0.046875-0.019531 0.097656-0.035156 0.14453-0.050781 41.516-14.766 75.512-12.344 117.19-0.68359 58.23 16.289 71.785 49.133 71.59 106.22l-0.125 35.793c0.33594 13.793 0.66406 27.586 1 41.375 0.09375 3.7969 0.70312 6.418 1.8828 8.0312 1.1094 1.5117 2.9258 2.1836 5.5078 2.1836h12.172c3.3633 0 4.3477-2.1992 4.2656-5.2383l0.18359-109.61c0.023438-14.117-0.074219-31.031-3.8125-47.293-3.4688-15.082-10.09-29.656-22.738-40.949-19.359-17.289-43.727-34.562-64.434-50.859-51.645-40.645-95.438-18.277-137.95 22.832-14.254 13.789-27.695 22.805-43.621 27.848zm-70.246 32.227c7.0586 0.003906 13.145 5.2773 13.574 12.426 0.46875 7.7891-6.0273 14.148-13.75 14.168-7.2383 0.019531-13.566-5.625-13.66-13.043-0.09375-7.5312 6.3789-13.555 13.836-13.551zm0.050781 2.3672c-6.1914-0.03125-11.637 4.9336-11.52 11.223 0.11719 6.1094 5.3516 10.66 11.293 10.637 14.871-0.050781 15.23-21.785 0.22656-21.859zm-0.55078-16.043c14.875-0.31641 27.719 10.914 28.203 25.949 0.47266 14.59-11.102 26.656-25.594 27.898l-0.082031 0.007812c-15.375 1.2734-29.445-10.195-29.961-25.824-0.50781-15.281 12.332-27.711 27.438-28.031zm2.1367 49.137 0.082031-0.007812c12.09-1.0391 21.805-11.098 21.242-23.332-0.56641-12.371-11.234-21.352-23.414-21.066-12.484 0.28906-23.18 10.477-22.754 23.148 0.43359 12.961 12.137 22.309 24.84 21.258zm352.53 96.078c0-1.5586 2.3672-1.5586 2.3672 0v19.148c0 0.65234-0.53125 1.1836-1.1836 1.1836-0.65234 0-1.1836-0.53125-1.1836-1.1836zm-6.8242 28.293 5.9023-0.0625c0.93359-0.015625 1.4844-0.20703 2.1953-0.82422l4.7227-4.125c1.0859-0.94922 1.5273-2.3008 1.5273-3.7148v-20.066c0-1.5156-0.38672-2.9023-1.5625-3.9258l-4.5234-3.918c-0.72656-0.58203-1.5664-0.87109-2.5-0.87109h-5.6992l-0.0625 37.504zm-224.6-174.19c-13.316 5.5273-26.297 12.602-38.688 19.953-10.082 25.27-10.066 51.305-10.008 78.039l0.17969 81.48c0.007812 3.1914 0.30078 5.9297 4.2109 5.9297h12.051c6.8125 0 7.3086-5.5 7.3086-11.129l0.007812-0.027344 1.1367-76.254c0.41016-27.652 8.2969-74.359 23.801-97.992zm174.57 160.73c1.5508-0.066406 1.6523 2.293 0.10156 2.3594l-9.0742 0.42188c-1.5508 0.066406-1.6523-2.293-0.10156-2.3594zm-40.922-26.43c0.92578-0.10938 1.0938 1.3008 0.16797 1.4102l-9.5117 1.1602v9.1328l10.852-1.0938c0.92578-0.089843 1.0664 1.3203 0.14062 1.4102l-10.988 1.1055v9.0039l10.871-0.73047c0.92969-0.0625 1.0234 1.3516 0.09375 1.4141l-10.965 0.73438v23.688c0 6.7461 5.2539 6.4062 10.52 6.5859 4.9492 0.16797 11.426 1.5195 15.961 3.6758 1.7461 0.83203 1.4414 1.207 1.8008-0.91016 1.4805-8.707 1.2422-23.297-0.42578-37.211-1.5312-12.777-4.2344-24.832-7.8711-30.949-3.8281 2.3633-8.6016 3.3047-13.051 3.293-2.9375-0.007812-4.7539 0.32812-5.6797 1.2344-0.91406 0.89453-1.2539 2.6641-1.2539 5.543v2.6406l9.3438-1.1406zm-196.07 11.598c0-1.5586 2.3672-1.5586 2.3672 0v19.148c0 0.65234-0.53125 1.1836-1.1836 1.1836-0.65234 0-1.1836-0.53125-1.1836-1.1836zm9.1016-9.2148h-5.6758c-0.92969 0-1.7734 0.28906-2.5 0.87109l-4.5234 3.918c-1.1797 1.0195-1.5625 2.4062-1.5625 3.9258v20.066c0 1.4141 0.4375 2.7617 1.5273 3.7148l4.7227 4.125c0.70703 0.61719 1.2617 0.80859 2.1953 0.82422l5.8945 0.0625-0.082031-37.504zm48.918 26.406c-1.5508-0.066407-1.4492-2.4258 0.10156-2.3594l9.0742 0.42188c1.5508 0.066406 1.4492 2.4258-0.10156 2.3594zm17.453 28.668c-1.5586-9.2891-1.3477-24.379 0.35938-38.633 1.5898-13.277 4.5156-25.973 8.5625-32.863-2.6172-1.1133-6.0781-1.8906-9.5469-2.1094-3.8828-0.24609-7.6641 0.21484-10.051 1.7148-5.9141 3.7109-10.105 16.223-12.273 29.855-2.5664 16.141-2.2266 33.531 1.457 39.906 1.4648 2.5391 5.207 3.6797 7.9688 3.6797h12.324c1.8516 0 1.5078 0.26562 1.2031-1.5469zm23.402-56.047c-0.39063-0.046874-0.66797-0.39844-0.62109-0.78906s0.39844-0.66797 0.78906-0.62109l9.3438 1.1406v-2.6406c0-5.793-1.1758-6.793-6.9336-6.7773-4.4492 0.007813-9.2227-0.92969-13.051-3.293-3.6328 6.1211-6.3398 18.176-7.8711 30.949-1.6953 14.137-1.9141 28.977-0.35156 37.629 0.30859 1.7031 0.12891 1.2539 1.7383 0.48828 4.5391-2.1562 11.004-3.5039 15.953-3.6719 5.2656-0.17969 10.52 0.16016 10.52-6.5859v-23.688l-10.965-0.73438c-0.39062-0.027343-0.6875-0.36328-0.66016-0.75391 0.027344-0.39062 0.36328-0.6875 0.75391-0.66016l10.871 0.73047v-9.0039l-10.988-1.1055c-0.39062-0.039063-0.67188-0.38672-0.63672-0.77344 0.039063-0.39062 0.38672-0.67188 0.77344-0.63672l10.852 1.0938v-9.1328l-9.5117-1.1602z"/>
</svg>
