<?xml version="1.0" encoding="UTF-8"?>
<svg width="752pt" height="752pt" version="1.1" viewBox="0 0 752 752" xmlns="http://www.w3.org/2000/svg">
 <defs>
  <clipPath id="a">
   <path d="m167 139.21h418v473.58h-418z"/>
  </clipPath>
 </defs>
 <g clip-path="url(#a)">
  <path d="m557.75 391.62c13.52-1.8008 17.961-16.891 19.148-28.605 0.003906-0.078125 0.011718-0.15625 0.023437-0.23438 0.45703-4.6953 0.38281-9.5703-0.31641-14.297-1.1602-7.8398-4.043-15.215-9.0625-20.543-4.2344-4.4961-7.8516-5.7617-12.176-7.2773-5.1016-1.7852-11.086-3.8828-19.828-11.031-7.6016-6.2148-17.691-11.758-27.766-8.9023-8.0195 2.2734-13.848 9.2891-17.258 16.605-2.9648 6.3555-5.0117 13.438-4.668 19.434 0.25781 4.5039 1.9141 8.3828 5.6758 10.742 9.9961 6.2695 19.039 14.312 27.746 22.055 7.6836 6.832 15.098 13.426 22.496 18.195 4.8711 3.1406 10.133 4.6367 15.992 3.8594zm9.1719-21.164c-0.5 1.4883-2.7656 0.73047-2.2656-0.75781 2.6953-8.0312 2.668-18.609-1.1875-26.27-0.70703-1.4023 1.4258-2.4805 2.1328-1.0781 4.1445 8.2344 4.2188 19.469 1.3203 28.105zm-302.48-174.37c-1.1992-1.0078 0.33594-2.832 1.5352-1.8242 5.332 4.4844 10.848 8.7461 15.875 13.582 1.1328 1.0898-0.52344 2.8125-1.6562 1.7227-4.9844-4.7969-10.461-9.0312-15.754-13.48zm-18.824 38.512-36.371 16.723c-14.336 6.5898-24.258 15.352-30.199 25.039-4.2305 6.8984-6.4414 14.27-6.793 21.66-0.35156 7.4062 1.1641 14.844 4.3906 21.859 4.6875 10.191 12.988 19.496 24.438 26.516 2.1641 1.3281 4.3086 2.3359 6.3164 2.9258 3.1523 0.92578 6.7266 1.1016 8.6602-2.0469 0.37891-0.61719 0.69922-1.3516 0.95312-2.2148 6.7852-23.07 13.578-46.16 20.367-69.238 3.1172-10.598 7.1875-12.105 17.934-14.746 12.395-3.043 31.789-7.2148 39.121-16.852-3.3047-7.6602-8.5078-13.973-15.195-20.41-7.875-7.5781-16.527-14.266-24.883-21.293-5.082-4.2734-9.7695-8.6445-12.672-13.051-1.793-2.7266-1.8516-4.5117-2.5273 0.57422-0.35156 2.6484 0.011719 4.8945 1.3555 6.4531l13.293 15.418c1.4062 1.6328 2.5938 3.3867 3.3711 5.2188 0.70312 1.668 1.0586 3.3789 0.94922 5.0898-0.21484 3.332-1.7422 2.8477 1.832 2.4375 1.0938-0.125 2.1406-0.15234 3.1406-0.066407 3.1406 0.26953 2.7266 5.043-0.41016 4.7734-4.6992-0.41797-12.801 3.2617-17.059 5.2188zm7.1484-15.605c-0.5625-1.3281-1.4766-2.6602-2.582-3.9453l-13.293-15.418c-3.7422-4.3398-3.1602-10.93-0.26562-17.93 0.92969-2.25 2.1055-4.5547 3.4453-6.8477 0.015625-0.027344 0.03125-0.058594 0.046875-0.085937 0.023437-0.042969 0.050781-0.085938 0.078125-0.12891 3.4805-5.8945 8.0547-11.668 12.445-16.062 8.1289-8.1289 18.828-9.7422 27.926-11.109l48.434-7.3008c19.176-3.6523 32.895 3.4453 40.371 14.305 2.8477 4.1328 4.7773 8.8086 5.7539 13.648 0.97266 4.8359 0.99219 9.832 0.015625 14.605-2.4766 12.09-11.266 22.73-27.008 25.75-3.2188 0.61719-6.0781 1.6133-8.5938 2.9141-3.2383 1.6758-4.125 3.7109-0.34766 5.6484 3.4688 1.7773 8.0312 2.0391 11.895 2.2578 8.0352 0.45312 18.059 1.0195 26.078 3.6562 11.938-6.9141 24.871-12.836 37.598-16.594 22.211-6.5586 48.723-7.8594 64.551 11.949 14.812 3.8594 29.547 10.477 42.496 18.609 12.777 8.0273 24.453 17.891 34.246 29.203 11.152 12.879 19.801 30.941 24.52 48.926 4.6953 17.902 5.5117 35.816 1.0586 48.609-1.4727 14.082-7.2656 30.562-23.266 32.691-4.918 0.65625-10.266-0.089843-14.797-2.1484-3.2227-1.4609-2.0664-1.9219-4.0938 1.0781-6.3477 9.3906-10.957 19.016-15.211 27.891-8.7227 18.207-15.996 33.391-33.473 38.074-4.7383 1.2695-8.707 1.8945-12.43 2.4805-8.0039 1.2617-14.805 2.332-26.887 10.16l-46.309 31.152c1.5117 0.64844 3.1484 0.91797 4.7891 0.77734 1.6562-0.13672 2.8008 0.13672 3.6719 0.73438 1.0781 0.73828 1.5 1.7031 1.7031 2.8633 0.16016 0.91406 0.30469 1.8438 0.43359 2.7656 0.39062 2.7578-1.2852 4.6289-3.9102 5.2227-4.5977 1.0391-7.543 4.625-7.7734 9.3008-0.21484 4.4219 2.1406 8.6445 6.4336 10.141 5.2578 1.8438 4.9297 2.7305 4.2812 5.3281l-0.78906 3.168c-0.52344 2.2852-0.88281 3.8516-5.5391 3.0938-4.6523-0.75391-8.7266 1.4766-10.637 5.7539-1.8164 4.0664-1.0859 8.8047 2.4258 11.719 1.0859 0.90234 1.8242 1.8281 2.1406 2.957 0.36719 1.3086 0.13672 2.5859-0.80859 3.9648-0.96875 1.4102-1.5703 2.4609-2.8711 3.6719-1.1836 1.1016-2.3984 1.5469-6-0.38281-3.918-2.1016-8.4297-1.4297-11.629 1.625-3.207 3.0625-4.0703 7.5117-2.1523 11.531 2.2383 4.6836 2.0273 4.8203-1.0781 6.8281-0.94531 0.61328-1.7227 1.1094-3.1992 1.9961-1.3359 0.80078-2.0234 1.2148-3.3555 0.89062-1.5156-0.37109-2.3711-1.7656-3.2891-2.9141-1.3398-1.6758-3.1719-2.8555-5.1914-3.4062-4.1797-1.1445-8.6367 0.55078-11.012 4.1758-1.1523 1.7617-1.7461 3.8633-1.6367 6.0039 0.16016 3.125-1.5586 5.5586-4.7266 6.0391-1.8945 0.28516-3.0938 0.43359-4.6797 0.61719-3.5078 2.3203-8.1289 3.3008-13.66 3.2812l-29.109-0.10156c-6.2617-0.023438-11.082-3.5117-14.562-8.4414l-55.461-78.527c-5.5391-7.8398-7.4531-12.613-5.9414-22.449l4.6289-39.379c0.78125-9.5781 8.5312-12.594 16.742-8.6953v0.003906l36.273 16.676c1.3594-1.2422 2.2578-2.9844 2.7266-4.8984 0.67578-2.75 0.46484-5.7891-0.51953-8.2344-1.4023-3.4766-1.2188-4.2734 0.33203-5.375 1.7188-1.2188 3.6602-2.4023 5.5-3.4453 2.2266-1.2617 2.8359-1.2109 5.4844 2.3359 2.6758 3.582 7.3867 4.9531 11.566 3.375 4.1953-1.5859 6.8203-5.7539 6.4375-10.223-0.29688-3.4766-0.085938-4.5234 1.2656-5.043 1.0664-0.41016 6.2031-1.0508 7.2852-1.1602 2.6094-0.25781 2.6719 1.043 3.4219 2.9648 1.9922 5.0938 4.0781 8.4922 10.168 8.6719 4.6719 0.13672 8.7812-2.5039 10.02-7.1328 0.80469-3 2.5234-3.625 4.5117-3.4805 1.918 0.14063 4.4531 0.89844 5.8242 1.2852 2.6797 0.75781 2.6289 2.6797 2.2188 5.0078-1.2148 6.9023 4.1484 12.922 11.105 12.004l89.828-77.117c1.0117-2.7227 1.5195-5.5117 1.5234-8.2383 0.003907-3.8242-0.98828-7.543-2.9961-10.77-2.0078-3.2305-5.043-5.9805-9.1211-7.8789-7.0859-3.293-13.645-2.6367-21.109-3.082-15.059-0.90234-30.289-3.9922-43.953-10.188-4.3008-1.9531-8.5898-4.0391-12.762-6.2617-3.7461-1.9961-5.4609-0.82422-7.6172 0.64844-5.9258 4.0508-10.266 4.2539-17.41 4.0859-8.9453-0.21094-25.801-1.7734-31.262-9.3398-5.9961-8.3047-1.0312-20.918-8.3555-27.07v-0.007812c-4.7891-4.0234-7.1016-9.2578-7.7969-14.512-0.78125-5.918 0.67969-10.406 1.7539-16.047 1.4023-7.3594 1.6484-12.941-1.457-23.352-8.7852 9.1641-27.016 13.188-39.852 16.336-6.0234 1.4805-11.039 2.7109-13.32 7.8555 4.3164 3.5391 7.8516 7.9688 10.355 13.016 2.6875 5.4141 4.1875 11.52 4.1875 17.977 0 10.535-4.0742 20.121-10.734 27.273-6.332 6.7969-15.004 11.391-24.734 12.496l-0.60938 2.0664c-0.375 1.2773-0.86719 2.3945-1.457 3.3594-3.1445 5.1289-8.7383 5.7188-14.086 4.1445-2.418-0.71094-4.9492-1.8906-7.457-3.4297-12.285-7.5312-21.215-17.574-26.293-28.613-3.543-7.707-5.207-15.898-4.8203-24.066 0.38672-8.1836 2.8242-16.328 7.4844-23.926 6.4141-10.461 17.035-19.875 32.297-26.895l36.359-16.715c4.4961-2.0664 11.812-4.957 9.1484-11.27zm191.5 127.68c5.2773-0.29688 9.9688-1.4102 13.969-3.6914 3.9609-2.2539 7.3086-5.6875 9.9648-10.648 2.1016-3.9258 2.5312-8.4883 0.65625-12.613-4.3008-9.4609-17-10.297-25.758-8.6758-4.1719 0.77344-7.4336 2.1055-7.8594 3.8125v0.007813c-0.88281 3.5664-3.4141 6.3008-6.8477 8.2852h-0.007813c-3.6602 2.1133-8.3828 3.375-13.129 3.8672-4.707 0.48828-9.4961 0.22266-13.312-0.71875-3.7617-0.92969-6.7227-2.582-8.082-4.9258l-0.003907 0.003906c-1.9883-3.4414-7.3945-8.6992-13.703-13.625-6.0039-4.6875-12.746-9-18.086-11.102-6.0547-2.3828-6.6953-8.25-3.5273-13.734 2.6875-4.6523 7.8047-9.2617 13.938-13.078 6.2266-3.8789 13.578-6.9961 20.5-8.5352 13.188-2.9336 23.445 1.6914 32.781 10.184 6.1719 5.6133 10.941 11.484 17.832 16.715 4.7891 3.6367 9.7188 6.4688 14.297 7.5195 7.5664 1.7383 15.273-2.7383 12.41-11.008-1.2031-3.4805-4.2031-7.1367-8.457-10.656-4.3438-3.5938-9.9609-7.0078-16.305-9.9258-20.75-9.543-49.191-13.801-66.234-1.6953-0.53906 0.38281-1.2852 0.25781-1.668-0.28125s-0.25781-1.2852 0.28125-1.668c17.824-12.66 47.238-8.3594 68.613 1.4688 6.5469 3.0117 12.348 6.5391 16.84 10.254 4.5781 3.7891 7.832 7.8047 9.1875 11.727 0.36328 1.0469 0.59375 2.0859 0.67969 3.1055 1.3984-3.0664 2.5039-6.8867 2.6133-10.613 0.28516-9.6406-6.6953-12.176-14.078-16-4.5469-2.3555-9.2969-4.8164-13.188-8.043-4.1523-3.4453-5.2344-7.7383-5.5586-12.871-0.15234-2.418-0.58984-4.543-2.1641-5.9219-8.5859-7.5312-39.895 2.7656-50.109 7.3281-16.969 7.582-28.934 18.133-39.871 33.027 0.39062 2.1719 0.52344 4.5898 0.35156 7.2812-0.64844 10.258-3.4375 21.527 9.2383 25.656 6.6016 2.1484 8.2422 6.5078 8.4844 10.32 0.25781 4.0977-0.58594 8.3438-2.6367 11.906 1.2617 0.23828 2.6953 0.76172 4.3789 1.6602 4.0859 2.1797 8.2617 4.1992 12.48 6.1133 13.164 5.9727 27.824 8.9219 42.316 9.7852 6.25 0.37109 12.535 0.35547 18.785 0.003906zm5.4258 4.2109c4.2695 2.2734 7.5156 5.3828 9.7539 8.9844 2.1641 3.4805 3.375 7.4141 3.6484 11.488 1.4023-2.7969 2.8555-5.4453 4.3398-7.9297 4.9297-8.2461 10.254-14.734 15.348-18.934-1.0195-2.2656-1.5625-4.7852-1.7148-7.457-0.39453-6.8633 1.8477-14.742 5.1016-21.719 4.0234-8.6328 10.879-16.516 20.309-19.188 11.738-3.3281 23.191 2.5195 32.094 9.8008 8.1133 6.6367 13.648 8.5742 18.367 10.227 4.9297 1.7266 9.0508 3.168 14.086 8.5117 4.1094 4.3633 6.957 9.8438 8.7188 15.812-0.29688-7.668-1.6094-15.93-3.7852-24.223-4.543-17.32-12.836-34.676-23.508-47-9.4805-10.945-20.793-20.504-33.18-28.285-12.543-7.8789-26.176-13.93-40.117-17.758-7.0234-1.9258-16.652-3.6719-23.207-0.17188-4.1211 2.1992-6.7695 6.4688-7.6367 13.195-0.60156 4.6445-0.57812 9.2188 3.3281 12.461 3.5195 2.918 8.0156 5.25 12.324 7.4805 9.2969 4.8164 17.02 8.2969 16.664 20.379-0.19922 6.7852-3.2305 13.891-6.0117 17.555-4.4688 5.8867-10.527 7.9375-17.789 6.2695-5.2852-1.2148-10.82-4.3633-16.113-8.3789-5.918-4.4922-10.383-9.2734-15.535-14.457-2.668 0.54688-4.6523 1.668-6.8633 3.2266-2.5703 1.8086-5.3203-2.1055-2.7539-3.9141 1.75-1.2344 3.5547-2.332 5.5586-3.1016-8.0039-6.8516-16.438-10.172-27.109-7.7969-4.4336 0.98828-9.0781 2.6914-13.449 4.8516 0.03125 0.20312 0.058594 0.41797 0.082032 0.63672 3.9531-2.3867 8.25-1.3203 8.7539 3.7266 3.9414-2.5195 7.707-0.89844 8.3633 3.793 3.8984-2.4648 7.7617-0.72656 8.5391 3.8047 3.8555-2.25 8.2305-1.4297 8.6836 3.6992 4.207-2.6602 7.9492-1.2109 8.5312 3.875 5.1719-2.8594 7.6406 0.035157 7.5625 5.4648-0.027343 1.8242-0.31641 3.9922-0.88672 6.4531-1.125 4.8633-3.3086 11-6.6797 17.949 0.88672-0.35547 1.7266-0.75781 2.4961-1.2031l-0.003907-0.003906c2.3594-1.3594 4.0664-3.1211 4.6016-5.2891v-0.007812c0.94141-3.7773 5.7227-6.2734 11.641-7.3711 11.121-2.0625 25.684-0.24609 30.98 11.406 2.4961 5.4883 2 11.586-0.80859 16.824-3.1133 5.8086-7.082 9.8633-11.816 12.555-3.3008 1.8789-6.9453 3.082-10.906 3.7461zm-209.23-57.914c-0.71875-1.3984 1.4062-2.4922 2.125-1.0938 6.0938 11.953 2.5 28.801-9.9375 35.152-1.3984 0.71484-2.4844-1.4102-1.0859-2.125 11.234-5.7383 14.395-21.176 8.8984-31.934zm-22.82 4.1094c2.0703 0 3.9453 0.83984 5.3008 2.1953 1.3555 1.3555 2.1953 3.2305 2.1953 5.3008s-0.83984 3.9453-2.1953 5.3008c-1.3555 1.3555-3.2305 2.1953-5.3008 2.1953-2.0703 0-3.9453-0.83984-5.3008-2.1953-1.3555-1.3555-2.1953-3.2305-2.1953-5.3008s0.83984-3.9453 2.1953-5.3008c1.3555-1.3555 3.2305-2.1953 5.3008-2.1953zm1.9102 5.5859c-0.48828-0.48828-1.1641-0.79297-1.9102-0.79297-0.74609 0-1.4219 0.30078-1.9102 0.79297-0.48828 0.48828-0.79297 1.1641-0.79297 1.9102s0.30078 1.4219 0.79297 1.9102c0.48828 0.48828 1.1641 0.79297 1.9102 0.79297 0.74609 0 1.4219-0.30078 1.9102-0.79297 0.48828-0.48828 0.79297-1.1641 0.79297-1.9102s-0.30078-1.4219-0.79297-1.9102zm-8.8672-24.336-9.1523 43c-1.5039 7.082-4.1211 6.4766-9.5938 2.2617-4.6484-3.582-7.6406-9.75-8.75-16.605-1.4375-8.8945 0.25-19.188 5.832-26.438 3.4258-4.4492 8.2695-7.6992 14.648-8.7305 6.8672-1.1133 8.418 0.33203 7.0156 6.5117zm-13.434 40.133 8.4688-39.797c0.54297-2.5469 0.64844-2.4336-1.3047-2.1289-5.0508 0.81641-8.8906 3.3984-11.613 6.9336-4.7695 6.1953-6.125 15.184-4.8984 22.766 0.76562 4.7266 2.5273 9 5.1797 11.926 1.6133 1.7812 3.4141 3.8438 4.168 0.29688zm26.434 20.848c7.7422-1.3359 14.617-5.1992 19.75-10.711 5.8594-6.2891 9.4453-14.734 9.4453-24.016 0-5.7148-1.3164-11.102-3.6797-15.863-1.9062-3.8398-4.5039-7.2812-7.6445-10.16zm147.82-112.95c-6.6367-1.4883-14.309-1.9219-20.68-2.2812-4.6328-0.26172-9.6172-0.63672-13.805-2.7812-1.9688-1.0078-3.7422-2.4688-4.5625-4.5742-3.0508 3.2539-5.1289 7.1992-6.2812 11.434-2.5625 9.4141-0.53906 20.09 5.2383 27.961 1.9297 2.6289 1.4219 2.3867 3.332 0.19531 5.1367-5.8945 12.035-12.23 20.074-18.418 5.1367-3.9531 10.75-7.8516 16.676-11.535zm-7.3984 91.238c-0.25-2.3906-1.375-4.9453-5.1133-6.1641-16.023-5.2188-13.379-17.102-12.535-30.504 0.39453-6.2031-1.0547-10.5-3.6328-13.285-3.2188-3.4805-8.3047-4.6523-12.926-4.5898-8.75 0.12109-21.477 4.4766-26.383 11.418-2.6875 3.8047-3.375 9.1602-2.7773 13.691 0.55078 4.1719 2.3711 8.3164 6.125 11.473l0.003907-0.003906c9.4961 7.9805 3.8438 20.586 9.1602 27.953 4.1523 5.7539 20.523 7.1914 27.5 7.3555 7.9258 0.1875 13.508-0.36328 18.137-7.3867 1.875-2.8438 2.793-6.543 2.4375-9.957zm-58.32-51.641c5.2812-3.6758 11.969-6.2031 18.305-7.207 3.7617-0.59766 3.3125 0.30469 1.418-2.9414-5.0234-8.5977-6.5625-19.301-3.9492-28.91 1.4883-5.4727 4.3203-10.551 8.582-14.625 5.043-4.8203 10.379-6.707 17.078-8.3633 9.7109-2.4023 19.988-6.2266 23.25-22.137 0.85156-4.1523 0.83594-8.5-0.015625-12.715-0.84766-4.207-2.5273-8.2773-5.0039-11.871-6.5039-9.4414-18.586-15.582-35.637-12.305l-0.09375 0.019531-48.434 7.3008c-5.7773 0.87109-12.254 1.8438-18.02 4.668-5.3086 2.5977-6.0625 5.8398-0.078125 8.7188 4.043 1.9453 10.832 2.9922 21.09 1.8672 8.7422-0.96094 17.414-0.57422 26.172-0.21094 3.1406 0.125 2.9531 4.8984-0.1875 4.7734-8.5391-0.35547-16.957-0.74609-25.48 0.19141-11.242 1.2344-18.918-0.027344-23.672-2.3164-2.793-1.3438-5.4492-3.4766-6.457-6.5078-3.7148 3.9336-7.4492 8.7773-10.34 13.676-0.011719 0.019532-0.019531 0.039063-0.03125 0.058594-1.6992 3.0039-0.86719 6.3008 1.3867 9.7266 2.5898 3.9297 6.9727 8 11.754 12.023 8.4414 7.0977 17.168 13.84 25.125 21.496 7.1719 6.9023 12.762 13.73 16.359 22.164 2.6797 6.2812 4.2266 13.391 4.4648 22 0.10938 3.9414-0.57422 3.4961 2.4141 1.418zm35.105-5.4961c2.0391 0.96094 3.8789 2.2617 5.4336 3.9453 1.0703 1.1562 1.9922 2.4805 2.7461 3.9883 10.926-14.18 23.094-24.355 39.5-31.734 12.348-5.5547 45.82-16.539 56.023-6.1016 1.6602-5.5781 4.7617-9.4141 9.0977-11.73 4.6055-2.4609 10.527-3.0703 17.52-2.1406-14.973-13.312-37.324-10.984-55.105-5.7344-20.684 6.1055-41.98 18.117-58.363 30.723-6.9414 5.3438-12.988 10.781-17.711 15.91-2.2695 2.4648-1.8633 1.5898 0.85547 2.8711zm10.234-85.125c0.29688-1.5469 2.6445-1.0977 2.3477 0.44922-0.77344 4.0312-3.6875 7.3477-7.5898 8.6289-1.4961 0.49219-2.2461-1.7812-0.75-2.2734 3.0703-1.0117 5.3789-3.6289 5.9883-6.8047zm-8.7852-21.051c10.688 0 19.355 8.6641 19.355 19.355 0 10.688-8.6641 19.355-19.355 19.355-10.688 0-19.355-8.6641-19.355-19.355 0-10.688 8.6641-19.355 19.355-19.355zm0 4.793c-8.043 0-14.562 6.5195-14.562 14.562 0 8.043 6.5195 14.562 14.562 14.562 8.043 0 14.562-6.5195 14.562-14.562 0-8.043-6.5195-14.562-14.562-14.562zm-55.34 0.98437c-0.65234-0.10156-1.0977-0.71094-0.99609-1.3633 0.10156-0.65234 0.71094-1.0977 1.3633-0.99609l17.266 2.7148c0.65234 0.10156 1.0977 0.71094 0.99609 1.3633-0.10156 0.65234-0.71094 1.0977-1.3633 0.99609zm-7.6367-1.3008c3.7109 1.4648 4.1406 4.5898 0.17188 5.9922-3.2695 1.1562-8.5039 0.9375-11.688-0.31641-3.7109-1.4648-4.1406-4.5898-0.17188-5.9922 3.2695-1.1562 8.5039-0.9375 11.688 0.31641zm-0.87109 2.2266c-2.6562-1.0469-7.293-1.2539-10.023-0.28906-1.7578 0.62109-1.4531 0.83984 0.24609 1.5078 2.6641 1.0508 7.2969 1.2539 10.023 0.28906 1.7578-0.62109 1.4531-0.83984-0.24609-1.5078zm178.26 70.781c0.12891-1.5703 2.5156-1.375 2.3867 0.19531-0.65625 7.6914 13.891 11.738 22.996 14.273 14.316 3.9844 29.16 10.488 41.477 18.734 12.438 8.3281 24.105 19.594 32.258 35.043 0.30859 0.58594 0.082031 1.3086-0.5 1.6133-0.58594 0.30859-1.3086 0.082031-1.6133-0.5-7.9414-15.055-19.328-26.043-31.469-34.172-12.094-8.0938-26.723-14.5-40.785-18.414-9.8398-2.7383-25.566-7.1172-24.746-16.773zm-66.91 293.48c0-1.5742 2.3945-1.5742 2.3945 0 0 23.828-13.828 45.121-35.445 55.062-1.4297 0.65234-2.4219-1.5195-0.99219-2.1719 20.77-9.5508 34.043-30 34.043-52.891zm-77.98 55.305c1.4961 0.49219 0.74609 2.7656-0.75 2.2734-10.684-3.5312-19.664-9.707-26.531-17.598l14.883 21.121 0.019531 0.027344c2.0273 2.957 8.5117 2.5938 11.496 1.7188 6.1836-1.8086 9.5781-6.5352 9.5781-12.965v-6.1445c-0.023438-2.4727 0.035156-2.5742-2.1328-3.2461-8.418-2.6094-15.824-7.5156-21.25-14.176-6.0664-7.4453-9.7031-16.941-9.7031-27.281 0-5.457 0.72656-10.66 2.5195-15.77 0.51953-1.4844 0.74609-1.2266-0.60547-1.7891l-22.02-9.1406c-1.4023 2.4297-3.4492 4.3516-5.8242 5.6133-2.7305 1.4531-5.8633 1.9141-8.8906 1.5273-0.73828-0.09375-0.64844-0.054687-0.81641 0.50391-0.14063 0.46094-0.21875 0.97266-0.32813 1.4453-0.070312 0.29688-0.25 0.72266 0.71875 1.0508 4.2656 1.4375 7.5117 4.4609 8.9805 8.7773 1.4492 4.2578 0.89062 9.1758-1.6562 13.207l17.867 25.355c-0.17188-0.30469-0.33984-0.60938-0.50781-0.91797-7.2188-13.352-9.6133-29.469-5.9336-45.5 0.35156-1.5312 2.6836-1 2.332 0.53516-3.543 15.453-1.2383 30.98 5.7109 43.836 6.832 12.637 18.164 22.691 32.848 27.543zm-10.188-107.38c-0.53516 0.38672-1.2812 0.26172-1.668-0.26953-0.38672-0.53516-0.26172-1.2812 0.26953-1.668 5.8867-4.2422 13.559-7.0469 21.559-8.168 7.9258-1.1094 16.203-0.57031 23.406 1.8555 0.625 0.21094 0.96484 0.88672 0.75391 1.5117-0.21094 0.625-0.88672 0.96484-1.5117 0.75391-6.8477-2.3086-14.738-2.8164-22.32-1.7539-7.6328 1.0703-14.926 3.7266-20.492 7.7383zm118.64-151.91c3.8789-7.6484 6.3359-14.352 7.5352-19.531 0.62891-2.7148 0.93359-4.9531 0.93359-6.6328 0-4.375-2.4141-4.1719-5.2539-1.9062-0.19531 2.5625-0.84766 5.7812-2 9.5078-2.2305 7.2305-5.2148 13.109-8.7188 19.711 0.65234-0.035156 1.3047-0.085937 1.9609-0.15625 1.8945-0.19531 3.7734-0.52734 5.543-0.99609zm-10.242 1.207c3.6445-6.8711 6.8477-12.938 9.1719-20.473 0.75781-2.457 2.1172-7.3633 1.9297-10.828-0.25781-4.7188-3.1367-4.3203-6.2188-1.7227-0.1875 2.4922-0.8125 5.6016-1.9062 9.2031-2.5195 8.3086-6.2695 15.316-10.188 22.945 0.074219 0.019531 0.14844 0.039063 0.22656 0.058594 2.0547 0.50781 4.4609 0.78516 6.9883 0.82031zm-9.5156-1.6289c3.8984-7.582 7.7031-14.641 10.207-22.887 0.73047-2.4062 1.9023-6.8945 1.8867-10.211-0.019532-4.7383-3.4805-4.6562-6.2695-2.0781-0.17578 2.3672-0.74219 5.293-1.7344 8.6641-2.1914 7.4648-5.6016 14.355-9.0781 21.277 1.0156 1.2188 1.8398 2.3516 2.4258 3.3672v0.007813c0.41016 0.71094 1.3125 1.3359 2.5625 1.8555zm-11.168-42.645c-0.22656 2.9297-1.0625 6.7109-2.5703 11.148-1.3281 3.9102-3.1875 8.3516-5.6172 13.191 0.63672 0.47656 1.2695 0.96094 1.8906 1.4492 1.2461 0.97266 2.4609 1.9609 3.6289 2.9531 2.9258-5.8398 5.5508-11.559 7.3125-17.902 0.49609-1.7852 1.5859-5.9219 1.4141-8.9961-0.24609-4.418-3.1406-4.5781-6.0586-1.8398zm4.4727 35.48c3.2617-6.5586 6.4102-12.938 8.4922-20.02 0.5625-1.8203 1.9023-6.2227 1.6992-9.5195-0.26953-4.3594-3.1875-5.0273-6.2461-2.1992-0.16016 2.1484-0.64062 4.7539-1.4688 7.7344-1.8594 6.6992-4.6484 12.723-7.75 18.883 1.9648 1.75 3.7578 3.4844 5.2773 5.1211zm-17.082-40.848c-1.957 1.1289-3.8594 2.3672-5.668 3.7109-0.54688 2.2656-1.3164 4.7969-2.3203 7.5508-0.98047 2.6914-2.1914 5.5898-3.6328 8.6602 1.957 0.85547 4.0469 1.9414 6.1875 3.1953 2.7891-5.8633 4.6953-11.086 5.8047-15.379 0.53125-2.0625 1.1094-4.6875 1.1836-7.0547 0.0625-1.9688 0.054687-1.6094-1.5547-0.67969zm2.4648 28.273c2.2891-4.5938 4.0469-8.8047 5.3086-12.523 0.79687-2.3398 2.5703-8.0586 2.5234-12.117-0.054687-4.832-3.5547-4.832-6.4297-2.0078-0.13672 1.918-0.52734 4.1719-1.1836 6.7109-1.1602 4.4883-3.1523 9.9297-6.0625 16.02 1.9453 1.207 3.9102 2.5312 5.8438 3.918zm-16.277-9.3125c1.4258-3.0273 2.6133-5.8789 3.5781-8.5156 0.52734-1.4492 0.99219-2.832 1.3867-4.1484-2.25 2.0156-4.0625 4.1016-5.2539 6.1602-1.1758 2.0391-2.207 5.0312 0.28906 6.5039zm99.371-7.7461c1.7734 1.6094 2.0938 4.3789 0.45312 6.2031-1.6484 1.832-4.4414 1.7812-6.2188 0.16797-1.7734-1.6094-2.0938-4.3789-0.45312-6.2031 1.6484-1.832 4.4414-1.7812 6.2188-0.16797zm23.051 64.488c-4.5508 3.8633-9.3438 9.7891-13.855 17.336-4.8203 8.0664-9.2891 17.941-12.777 29.094-2.6719 8.5469-4.6523 15.355-6.3203 21.09-6.2031 21.332-8.2773 28.473-19.289 36.359l-0.003907-0.003906-65.457 48.707c-9.6992 6.6133-18.398-4.6523-9.25-12.164l0.074219-0.066406 71.449-54.145c1.0547-0.79688 2.5547-0.58594 3.3516 0.46875 0.79688 1.0547 0.58594 2.5547-0.46875 3.3516l-71.449 54.145v-0.003906c-4.3711 3.6641-1.0117 7.6055 3.5977 4.4609l65.34-48.617 0.027344-0.027344c9.6836-6.9336 11.641-13.672 17.492-33.793 1.7305-5.9531 3.7852-13.02 6.3398-21.184 0.52734-1.6836 1.0742-3.3398 1.6445-4.9688l-113.95 97.828c-0.67969 0.58203-1.5938 0.71484-2.3828 0.42578-8.4609-2.8242-19.988-1.4453-27.332 3.707-0.88672 0.75-2.1641 0.82812-3.0938 0.09375l-67.684-31.113-0.027344-0.007813c-5.1328-2.4375-9.4297-1.4453-9.9297 4.7578l-0.007813 0.085937-4.6445 39.535-0.007812 0.085937c-1.3203 8.6055 0.29297 12.152 5.1211 18.984l55.328 78.336c2.6211 3.7109 6.0312 6.5938 10.785 6.6094l29.109 0.10156c10.715 0.039063 16.195-3.9023 16.047-15.102l-0.007812-0.027343v-29.488c-0.13672-2.1328 1.1953-3.0508 2.5195-3.5977 13.758-5.6719 22.969-18.633 23.555-33.531 0.11719-3.0273 0.69141-3.2617 2.8164-4.6914l76.836-51.684c12.938-8.3828 20.203-9.5273 28.766-10.875 3.5391-0.55859 7.3125-1.1523 11.922-2.3867 15.363-4.1172 22.203-18.391 30.402-35.508 4.3359-9.0508 8.6953-19.105 15.543-28.496 1.5898-2.1797 1.3125-2.4688-1.1289-4.1523-6.2148-4.2812-12.102-9.8203-18.293-15.328-8.5781-7.6289-17.488-15.551-27.109-21.59-1.3945-0.875-2.582-1.8867-3.582-3.0117zm-27.559-18.598c2.6992 3.0039 2.0273 7.5508-0.85547 10.168-2.8906 2.625-7.4766 2.8438-10.188-0.16797-2.6992-3.0039-2.0273-7.5508 0.85547-10.168 2.8906-2.625 7.4766-2.8438 10.188 0.16797zm-6.9648 3.3711c-0.91016 0.82813-1.4375 2.4102-0.51953 3.4297 0.91016 1.0078 2.5078 0.64844 3.4102-0.17188 0.91016-0.82812 1.4375-2.4102 0.51953-3.4297-0.91016-1.0117-2.5078-0.64844-3.4102 0.17187zm-74.812-7.2383c-1.3672-0.77734-0.1875-2.8555 1.1797-2.0781 10.168 5.7539 20.633 8.8867 30.945 9.7734 11 0.94922 21.824-0.65625 31.938-4.3516 1.4766-0.53516 2.293 1.7109 0.8125 2.2461-10.438 3.8164-21.605 5.4727-32.949 4.4922-10.641-0.91797-21.438-4.1484-31.93-10.082zm-134.48 145.09c-1.4336-0.64453-0.45312-2.8281 0.98438-2.1797l59.707 27.078c1.4336 0.64453 0.45312 2.8281-0.98438 2.1797zm52.648 32.371c2.1484 0.89062 1.8047 2.625 1.1406 4.3398-2.0664 5.3477-3.0977 10.652-3.0977 16.414 0 9.207 3.2305 17.656 8.6172 24.27 5.4922 6.7422 13.219 11.586 22.055 13.398 1.3359 0.27344 2.4141 0.875 2.4141 2.4375v10.742c0 8.5703-4.8203 15.148-13.043 17.555-5.1797 1.5156-13.371 1.3125-16.758-3.582l-41.02-58.211c-0.67969-0.96094-1.4102-1.9727-2.1211-2.9453-4.4414-6.1133-7.8945-10.859-8.5234-19.613-0.23047-3.1836-0.070312-6.4727 0.44531-9.4648 0.51562-2.9844 1.3945-5.7188 2.6172-7.8281 2.6523-4.582 6.1797-4.5703 10.645-2.7148l36.629 15.207zm-31.293-7.8125-7.1719-2.9766c-2.168-0.89844-3.3672-1.5586-4.6719 0.69531-0.76172 1.3164-1.3633 3.0312-1.7852 4.9609-0.51172 2.3242-0.49609 1.3164 1.1719 1.2617 3.5508-0.11719 4.7852 1.457 8.8281-0.69531 1.4375-0.76562 2.707-1.8711 3.6289-3.2461zm-13.715 16.086c1.1914 5.332 4.0859 9.2188 7.2227 13.535 1-2.4883 1.0469-5.2539 0.12109-7.6445-1.125-2.9102-3.4961-4.8555-6.4766-5.6328-0.3125-0.082031-0.60156-0.16797-0.86719-0.26172zm61.188-25.828c8.2305-5.2617 20.023-6.75 29.379-4.0703l22.16-19.023c-7.1094-1.9023-11.77-8.7461-10.914-16.012 0.13281-1.1367 0.47266-1.0312-0.59375-1.2812-0.51172-0.12109-1.0234-0.23438-1.5352-0.35547-1.2422-0.29297-0.83594-0.32422-1.293 0.93359-2.1914 6.0586-7.918 9.6211-14.387 9.4297-6.6289-0.19531-11.465-3.9375-13.668-10.164-0.53516-1.5078-0.80859-1.3828-2.0586-1.2148-1.0703 0.25-1.457 0.19531-1.4609 1.75-0.003906 6.3086-3.625 11.871-9.5781 14.121-5.6953 2.1523-12.059 0.58203-16.176-3.875-1.3945-1.5117-1.6719-1.5352-2.8047-0.83203-0.625 0.38672-1.3477 0.69141-0.67969 2.8945 0.92969 3.0586 1.0469 6.5938 0.25391 9.8203-0.52734 2.1406-1.4531 4.1641-2.8086 5.8555l26.156 12.023zm37.547 80.805v24.449c0 3.4297-0.55078 2.9805 1.7305 0.67969 3.7031-3.7383 9.1992-5.2773 14.406-3.8555 2.9883 0.81641 5.6875 2.5547 7.6602 5.0156 0.51172 0.67187 0.88672 0.69531 1.6055 0.25781 0.27344-0.16797 0.59766-0.35547 0.90234-0.58984 0.64844-0.49609 0.79297-0.60156 0.36719-1.4141-2.8125-5.8906-1.5195-12.566 3.1797-17.055 4.707-4.4922 11.41-5.4609 17.172-2.3711 1.1445 0.60156 1.1211 0.52734 1.6836-0.25391 0.15234-0.21094 0.29297-0.44531 0.4375-0.67578 0.65625-1.0312 0.52344-1.0469 0.12109-1.3828-5.1758-4.2969-6.4297-11.328-3.7383-17.355 2.6758-5.9883 8.7305-9.6211 15.316-8.5898 0.72266 0.11328 0.76563-0.22266 0.83203-0.50391 0.070312-0.30078 0.125-0.54688 0.20703-0.90625 0.089844-0.39844 0.066406-0.54688-0.88281-0.88281-6.3242-2.207-9.9531-8.3164-9.6328-14.879 0.32031-6.5664 4.4805-11.883 10.879-13.586 0.90234-0.23828 0.78516-0.46875 0.73438-0.80078-0.042969-0.27734-0.082031-0.55469-0.12891-0.83203-0.16016-0.94141-0.039063-0.67578-0.96875-0.62891-1.8008 0.085937-3.5859-0.16406-5.2695-0.71094-1.3555-0.44141-2.6445-1.0781-3.8242-1.8906l-24.926 16.766c-2.207 1.4844-1.6953 0.84766-1.9062 3.457-1.2227 15.051-10.332 28.152-23.754 34.77-2.7305 1.3477-2.2109 0.56641-2.2109 3.7695zm-17.234-47.105c2.543 0 4.6055 2.0625 4.6055 4.6055s-2.0625 4.6055-4.6055 4.6055c-2.543 0-4.6055-2.0625-4.6055-4.6055s2.0625-4.6055 4.6055-4.6055zm147.62-124.73-11.82 37.395c-2.082 6.5859 8.4648 9.1523 10.664 1.707l6.7539-22.84c2.3516-7.957 10.441-14.203 11.43-17.938 2.6211-9.9297-12.504-12.613-17.023 1.6797zm-16.391 35.953 11.82-37.395c6.4805-20.496 30.395-14.863 26.215 0.98047-1.4297 5.418-9.1836 10.352-11.465 18.07l-6.7539 22.84c-4.0586 13.727-23.785 8.0469-19.82-4.4961zm-131.24 78.582c8.1797 0 14.809 6.6289 14.809 14.809 0 8.1797-6.6289 14.809-14.809 14.809-8.1797 0-14.809-6.6289-14.809-14.809 0-8.1797 6.6289-14.809 14.809-14.809zm0 4.793c-5.5312 0-10.016 4.4844-10.016 10.016s4.4844 10.016 10.016 10.016 10.016-4.4844 10.016-10.016-4.4844-10.016-10.016-10.016z"/>
 </g>
</svg>
