<?xml version="1.0" encoding="UTF-8"?>
<svg width="752pt" height="752pt" version="1.1" viewBox="0 0 752 752" xmlns="http://www.w3.org/2000/svg">
 <path d="m552.53 162.23-92.738 118.58c9.7148 1.1055 21.133 8.3672 24.758 17.73l91.738-119.64c1.7148-2.2344 1.2578-3.5-0.13281-6.2852-3.0039-6.0234-10.184-11.758-16.863-12.988-4.0352-0.74219-4.8203 0.125-6.7656 2.6094zm3.0039 29.809c0.80078-1.0391 2.3828 0.18359 1.582 1.2227l-3.4297 4.4492c-0.80078 1.0391-2.3828-0.18359-1.582-1.2227zm-7.5 9.7344c0.80078-1.0391 2.3828 0.18359 1.582 1.2227l-10.57 13.715c-0.80078 1.0391-2.3828-0.18359-1.582-1.2227zm-245.62 248.54c0.82422-1.0234 2.3828 0.23047 1.5586 1.2539l-37.48 46.633c-0.82422 1.0234-2.3828-0.23047-1.5586-1.2539zm230.8-229.31c0.80078-1.0391 2.3828 0.18359 1.582 1.2227l-29.25 37.961c-0.80078 1.0391-2.3828-0.18359-1.582-1.2227zm48.105-44.133c5.668-1.2422 4.5742-6.6992 2.4102-10.773-3.8164-7.1797-11.57-13.371-19.371-15.633-4.8359-1.4023-10.355-0.66016-10.645 5.5352 1.8125-0.66797 3.9805-0.73438 6.2969-0.30859 7.9219 1.457 16.16 7.9766 19.73 15.133 1.0586 2.1172 1.625 4.2031 1.5742 6.0469zm-101.28 159.14c-0.21484-1.2969 1.7578-1.625 1.9727-0.32812 2.3398 13.996-3.7422 29.703-10.324 41.805-0.62891 1.1523-2.3828 0.19922-1.7539-0.95703 6.3438-11.668 12.363-27.023 10.105-40.523zm-276.23 212.04c0.22266-1.2969 2.1953-0.96094 1.9727 0.33594l-4.2109 24.176c-0.22266 1.2969-2.1953 0.96094-1.9727-0.33594zm12.312 24.703 140.91-178.32c17.941-21.586 31.668-41.379 59.781-49.348-5.9727-6.1133-10.062-14.355-3.1133-21.664l17.18-20.43c-48.848 12.203-75.348 37.426-105.43 76.578l-119.35 155.31c-1.9531 2.543-2.6172 3.1406-5.8516 3.0312-9.9961-0.33594-23.836-1.4844-29.316 5.4844-1.5898 2.0234-1.8945 3.0859 0.52344 3.4336l13.48 1.9336c13.859 1.9844 11.039 21.289-2.1094 19.309l-14.184-2.1367c-1.9648-0.28516-2.1602-0.42188-2.1133 1.6328 0.03125 1.332 0.68359 2.4102 1.5391 3.3047 3.2539 3.3984 17.199 6.6758 22.16 8.1641 11.457 3.4375 18.133 3.5352 25.891-6.2852zm-27.035 10.121c-6.168-1.8516-19.66-4.8125-23.898-9.2422-2.2344-2.332-3.2656-5.3359-2.4102-9.2578 0.87109-3.9961 4.1055-2.7539 5.8398-2.4922l14.832 2.2344c7.9531 1.1992 9.2383-10.195 1.1797-11.352l-13.789-1.9766c-4.8516-0.69531-7.1211-3.7539-3.7891-8.8516 6.1562-9.4219 21.633-8.3984 32.84-8.0352 2.2383 0.074218 2.6094-0.85938 3.3672-1.8789l119.15-155.05c32.34-42.082 60.066-67.141 112.79-79.113l9.2031-10.945c2.8516-3.3906 5.5742-5.4023 10.285-6.0664l95.227-121.76c-1.6758-10.586 6.418-15.105 15.551-12.457 8.8281 2.5586 17.477 9.4648 21.797 17.594 4.2852 8.0586 2.5117 16.375-7.6445 16.898l-93.961 122.57c0.085938 2.1445-0.31641 4.3125-1.3516 6.4336 4.6367 6.0156 7.5 12.906 8.7539 20.402 3.4453 20.602-5.4688 43.668-15.156 61.484-8.2422 15.152-17.945 27.555-28.199 41.301l-118.53 158.89c-10.773 14.441-25.469 16.383-42.312 12.238-8.2031-2.0195-15.781-5.6055-20.969-9.7031-3.625-2.8633-6.1445-6.0352-7.0117-9.1914-1.168-4.2578 1.0469-6.2539 4.9805-5.6133l12.941 2.1016c7.332 1.0625 8.9492-10.715 1.1445-11.887l-11.664-2.0234c-5.2344-0.90625-5.5898-5.1641-2.6953-9.1094 3.5117-4.7852 8.0078-5.5742 13.348-5.9922l30.824-2.4062c2.5-0.19531 2.4258-0.51953 3.9141-2.5781l116.16-160.98c6.4531-8.9297 14.449-19.602 18.805-29.707-2.0156 0.82031-4.2266 1.0859-6.5195 0.9375-7.8789-0.50781-16.719-5.8555-21.805-10.008-29 7.5664-41.84 26.594-60.211 48.695l-141.03 178.48c-8.5977 10.879-16.918 11.348-29.996 7.4258zm234.81-236.85c4.0352 3.0938 11.66 7.8828 18.672 8.2734 12.289 0.67969 8.9062-11.184 2.0586-18.004-5.5586-6.3672-20.637-17.879-28.105-10.035-6.2773 7.4648 1.3438 15.145 7.375 19.766zm-1.8477-26.34c8.1602-0.40234 17.25 5.6133 22.973 11.215-5.2461-10.324-3.3867-20.426 6.1328-27.434 8.418-6.1953 19.066-6.9883 27.207 0.28906 1.0508 0.94141 2.043 1.9062 2.9805 2.8984 0.58984-2.2227 0.3125-4.5039-0.52734-6.6758-3.1523-8.1445-13.871-14.711-22.336-15.273-5.1758-0.34375-8.0742 1.2617-11.129 4.8945-8.4336 10.027-16.867 20.059-25.301 30.086zm-119.3 247.48c0.20703-1.2969 2.1797-0.98438 1.9727 0.3125l-3.9219 24.566c-0.20703 1.2969-2.1797 0.98438-1.9727-0.3125zm150.78-260.47c-9.375 6.9023-8.7031 15.066-3.9766 24.285 4.9844 9.7227 7.918 15.441 3.1055 27.137-4.3789 10.637-12.828 21.934-19.574 31.273l-118.52 164.05c-0.32422 0.52734-0.89062 0.89453-1.5547 0.94531l-33.715 2.6328c-4.1133 0.32031-7.6758 0.55859-10.473 4.3672-2.0312 2.7695-1.0078 2.5977 1.3008 2.9961l10.43 1.8047c13.039 1.957 10.27 21.637-2.3008 19.812l-12.082-1.9648c-1.8242-0.29688-1.9336-0.38672-0.98828 1.6445 0.90625 1.9492 2.7227 3.9805 5.1953 5.9297 4.7578 3.7539 11.785 7.0664 19.449 8.9531 14.844 3.6523 28.309 2.4375 37.887-10.406l118.91-159.41c10.098-13.539 19.66-25.723 27.777-40.648 9.2148-16.945 17.996-39.305 14.719-58.918-1.6289-9.7461-6.1211-17.945-13.508-24.512-6.6719-5.9297-15.262-5-22.082 0.023438z"/>
</svg>
