<?xml version="1.0" encoding="UTF-8"?>
<svg width="752pt" height="752pt" version="1.1" viewBox="0 0 752 752" xmlns="http://www.w3.org/2000/svg">
 <path d="m572.94 338.14-156.7 156.49c-4.3789 4.375-12.023 10.984-11.379 16.98 1.2734 11.891-6.4492 21.641-17.617 24.812-8.2812 2.3516-17.203 0.64844-23.562-5.3594-3.0977-2.9258-6.1133-2.5664-14.57-1.5547-57.945 6.9258-116.15 13.016-174.16 19.504-2.8125 0.32031-5.6562 1.0469-8.5156 1.3828-5.2773 0.62109-6.7891-2.6602-7.0352-7.2344-0.19922-3.7422-5.6367-2.3477-3.8203 1.0039 0.78125 1.4414 1.582 3.0938 1.8047 4.6133 0.28516 1.9727-0.41016 3.7266-3.4062 4.5234-6.1094 1.625-13.52-1.4414-13.797-9.9219-0.13281-3.9648 1.3438-8.875 4.8789-14.094l6.3906-10.715c1.1797-1.9805 0.97266-1.1641-0.25781-2.957-4.2227-6.1719-1.0117-13.316 5.5781-17.668 1.6484-1.1562 3.5391-2.4883 5.3984-4.668 4.3008-5.0391 10.938-13.516 17.559-23.066 3.2461-4.6797 6.0625-9.2305 8.9727-14.113 27.617-46.32 55.238-92.637 82.855-138.96 5.0273-8.4336 6.9844-11.625 3.2852-21.266l-3.8047-9.9102c-2.1797-5.6836-0.40625-8.2969 5.2188-10.348l11.703-4.7734c5.5352-2.2578 8.6797-2.5078 11.398 3.9766l4.2539 9.8047c2.2031 5.0781 5.8516 3.5391 14.129 0.98828 54.551-16.832 110.98-32.816 166.13-47.621 15.074-4.0469 46.695-10.98 59.934-18.695 1.6719-0.97266 1.6328-1.4336 1.3203-2.6758-0.26563-1.043-0.64063-2.168-1.0234-3.3398-1.625-5.0078-0.92578-7.1836 3.8867-9.375 5.3125-2.4219 15.145-5.0469 20.836-5.5781 5.0703-0.47266 7.7109 2.0078 8.0508 6.9336 0.0625 0.88672 0.74609 4.6172 1.6719 4.9492 4.3398 1.5547 7.0273 7.0703 8.6133 13.742 1.4062 5.9219 3.1406 21.102 1.8828 27.02-0.94922 2.8516 1.8008 14.844 5.6055 27.887 4.4219 15.152 10.285 31.387 13.59 36.59 5.0312 7.918 6.1641 17.48-5.2617 20.332l-19.59 4.8906c-2.9062 0.72266-6.3125 0.19922-7.8359-2.6641-0.79297-1.4961-0.77344-1.5-2.5898 0.13281zm-416.62 172.24 4.2852-7.1875c1.9453-3.2617 2.2266-3.1094-0.83203-0.95703-2.8086 1.9766-5.4492 4.7266-4.9688 8.1562 0.35547 2.5469 0.65234 1.4375 1.5156-0.011719zm-10.914 32.832c0.085937 2.5664 1.1719 4.7148 3.8867 5.1289 2.7734 0.42188 2.2188-0.58203 1.6562-1.6797-5.8359-10.781 13.004-16.125 13.668-3.7891 0.089844 1.5664 0.40234 2.5781 2.3438 2.1719 2.2383-0.46875 5.125-0.98047 7.3906-1.2344 57.996-6.4883 116.19-12.57 174.12-19.496 10.25-1.2266 13.906-1.6602 18.789 2.9492 5 4.7227 12.02 5.9805 18.516 4.1406 8.7188-2.4688 14.883-9.8828 13.883-19.223-0.91797-8.5664 7.0156-15.383 12.695-21.055l156.92-156.71c1.4727-1.4727 3.168-3.4453 5.1641-3.9414 2.1523-0.53516 4 0.11719 5.0195 3.1445 0.52344 1.5547 1.3164 2.2383 3.668 1.6523l19.59-4.8906c6.5195-1.6289 3.4727-8.3516 1.0703-12.133-3.5352-5.5625-9.6445-22.371-14.184-37.938-3.9297-13.461-6.6758-26.23-5.6523-30.59 0.39844-4.9336 0.14453-15.941-1.8984-24.555-1.207-5.0938-2.9258-9.1836-5.2812-10.027-3.5039-1.2539-4.918-6.168-5.1484-9.5156-0.13281-1.9531-0.27734-2.2695-2.3125-2.0781-5.0586 0.47266-14.535 2.9531-19.238 5.1484-2.1758 1.0156-1.7461 0.70312-1.0078 2.9805 0.60156 1.8516 1.168 3.5977 1.4883 5.2344 0.51562 2.6367-0.55859 4.5625-3.2266 6.3555-11.504 7.7227-48.414 16.102-62.121 19.777-55.09 14.789-111.46 30.758-165.95 47.57-11.438 3.5273-16.523 5.1797-20.387-3.7188l-4.3242-9.9609c-0.98828-2.3633-1.8008-2.3984-4.5156-1.293l-11.949 4.875c-2.0312 0.82812-3.2188 0.84375-2.1641 3.5859l3.8047 9.9102c4.3086 11.219 2.2539 15.852-3.6797 25.809l-82.98 139.17-42.828 71.824c-2.3047 3.8672-4.9805 7.6406-4.8242 12.398zm408.57-293.54c1.3672-1.2305 3.5078-1 4.2891 0.70312 1.0039 2.1797 2.0586 4.5508 3.0938 7.0312 4.7812 11.465 8.1172 23.914 9.2656 36.332 0.27734 2.9883 0.44141 6.0508 0.56641 9.0117 0.0625 1.4414-1.0547 2.6641-2.4961 2.7266-2.2344 0.054688-1.3164-1.0938-3.6484 1.8828-2.4766 3.1602-5.2617 6.0039-8.1367 8.8281l-155.77 152.9c-13.906 13.648-25.117 14.594-32.875-4.3828l-52.73-128.98c-3.4414-8.4141-7.7383-18.906 1.7617-25.098 13.086-8.5312 43-18.621 76.629-28.102 53.551-15.094 116.71-28.715 135.75-31.863 7.6797-1.2695 13.508-2.0781 18.34-1.4258 1.3359 0.17969 2.5977 0.42578 3.7617 0.86719 1.0391 0.39453 1.3984 0.28906 2.1992-0.42969zm2.3008 10.57c-2.4492-3.6406-5.2422-5.3125-8.9531-5.8125-4.1641-0.5625-9.5859 0.19922-16.777 1.3906-18.953 3.1367-81.855 16.699-135.21 31.742-33.168 9.3477-62.57 19.234-75.188 27.461-6.4844 4.2266-1.9414 13.52 0.40625 19.258l52.309 127.95c6.6055 16.16 13.617 13.93 24.551 3.1992l156.28-153.41c4.4648-4.3828 11.992-11.82 11.555-18.613-0.58984-9.1484-4.8125-26.984-8.9727-33.168zm-306.05 259.79-44.008-0.92188c-13.906-0.78906-20.965 1.4766-32.184 2.3203-2.3828 0.17969-2.4766-0.91797-3.0234 1.9141-0.99219 5.1133 3.1562 7.5117 8.9844 6.6328l70.234-9.9492zm-73.043-4.0508c10.121-0.17187 16.074-2.8906 28.723-2.1094l76.492 1.6055 61.184-8.6641c4.3086-0.60938 9.3086-1.25 11.863-4.875 2.5977-3.6875 0.60938-2.0898-1.3984-1.0898-6.1875 3.0859-15.145 3.7422-21.641 3.9219l-131.98 3.6953c-6.5859 0.18359-14.266 1.0312-20.328-1.6836l-4.0586 6.7773c-1.5586 2.6055-2.2383 2.4766 1.1445 2.4219zm177.14-28.938-62.734-153.26c-3.082-7.8086-6.1133-3.2969-9.1914 2.0977l-99.594 166.37c4.957 1.8672 11.551 1.1328 16.906 0.98438l132.21-3.7031c7.875-0.21875 27.562 0.12109 22.402-12.488zm22.93 13.363c7.4961-2.0078 15.199 2.4414 17.211 9.9375 2.0078 7.4961-2.4414 15.199-9.9375 17.211-7.4961 2.0078-15.199-2.4414-17.211-9.9375-2.0078-7.4961 2.4414-15.199 9.9375-17.211zm1.2227 4.5625c-4.9766 1.332-7.9297 6.4453-6.5938 11.422 1.332 4.9766 6.4453 7.9297 11.422 6.5938 4.9766-1.332 7.9297-6.4453 6.5938-11.422-1.332-4.9766-6.4453-7.9297-11.422-6.5938zm-209.73 10.57 109.09-182.23c5.4922-9.1758 13.199-14.691 18.594-1.5078l62.582 152.88c6.7969 16.605 2.8633 24.82-14.512 27.281l-163.8 23.199c-13.227 1.875-19.586-6.9141-11.957-19.629z"/>
</svg>
