<?xml version="1.0" encoding="UTF-8"?>
<svg width="752pt" height="752pt" version="1.1" viewBox="0 0 752 752" xmlns="http://www.w3.org/2000/svg">
 <g>
  <path d="m428.14 312.88c-7.1992-5.3516-15.105-9.5664-23.535-12.504-4.4062-1.5156-8.1914-4.3086-10.891-8.0977l-0.14062-0.1875c-2.8398-3.8828-4.3086-8.4766-4.3086-13.309v-3.125c3.1719-1.9883 5.8711-4.6406 7.9102-7.8633 2.5586-4.0273 3.9297-8.668 3.9297-13.449 0-2.2266-1.8008-4.0273-4.0273-4.0273-2.2266 0-4.0273 1.8008-4.0273 4.0273 0 4.0273-1.375 7.7656-3.7891 10.75v-5.3984c0-4.0742-3.3164-7.3867-7.3867-7.3867h-11.793c-4.0742 0-7.3867 3.3164-7.3867 7.3867v5.3984c-2.4141-2.9844-3.7891-6.7266-3.7891-10.75v-0.71094c0-5.3047 2.5117-10.371 6.7266-13.543l9.5664-7.293c5.5898-4.2617 11.461-8.7617 16.055-12.266 6.1562-4.7344 9.8516-12.172 9.8516-19.938l-0.007813-0.76172c0-6.7266-2.6055-13.023-7.3398-17.758-4.7383-4.7344-11.035-7.3398-17.762-7.3398-13.828 0-25.102 11.27-25.102 25.102 0 2.2266 1.8008 4.0273 4.0273 4.0273 2.2266 0 4.0273-1.8008 4.0273-4.0273 0-9.4258 7.6719-17.051 17.051-17.051 4.5469 0 8.8555 1.7539 12.078 5.0195 3.2188 3.2188 5.0195 7.5312 5.0195 12.078v0.71094c0 5.3047-2.5117 10.371-6.7266 13.543-4.5938 3.5039-10.465 8.0039-16.055 12.266l-9.5664 7.293c-6.1562 4.7344-9.8516 12.172-9.8516 19.938v0.71094c0 4.7812 1.375 9.4258 3.9297 13.449 2.0352 3.1719 4.7344 5.8711 7.9102 7.8633v3.125c0 4.832-1.5156 9.4258-4.3086 13.309l-0.14062 0.1875c-2.7461 3.7422-6.5352 6.582-11.035 8.1445-8.4297 2.9375-16.293 7.1523-23.441 12.504-7.0547 5.3047-13.309 11.648-18.469 18.801-10.75 14.918-16.434 32.535-16.434 50.957 0 22.922 8.8555 44.562 24.863 60.949 6.7266 6.8672 14.445 12.504 22.777 16.766v15.391c0 7.5312 4.4531 14.348 11.27 17.43l20.363 9.1406c1.2305 0.56641 2.5117 0.94531 3.7891 1.2305v48.777c0 13.781 11.223 25.004 25.004 25.004s25.004-11.223 25.004-25.004c0-2.2266-1.8008-4.0273-4.0273-4.0273-2.2266 0-4.0273 1.8008-4.0273 4.0273 0 9.3281-7.625 16.953-16.953 16.953-9.3281 0-16.953-7.625-16.953-16.953v-48.777c1.2773-0.28516 2.5586-0.71094 3.7891-1.2305l20.363-9.1406c6.8672-3.0781 11.27-9.8984 11.27-17.43v-15.344c7.8633-3.9766 15.059-9.1406 21.453-15.391 8.1914-8.0039 14.633-17.379 19.133-27.848 4.6875-10.844 7.0547-22.398 7.0547-34.383 0.046874-18.469-5.6367-36.133-16.434-51.051-5.1562-7.2461-11.406-13.594-18.508-18.895zm-20.699 162.86c0 4.3555-2.5586 8.2891-6.5352 10.086l-20.363 9.1406c-2.8906 1.2773-6.1562 1.2773-8.9961 0l-20.363-9.1406c-3.9766-1.7539-6.5352-5.7305-6.5352-10.086v-11.793c9.2812 3.5977 19.227 5.5898 29.457 5.7773h1.9883c10.844 0 21.359-1.9414 31.398-5.8242v11.84zm23.871-36.465c-15.297 14.965-35.566 22.922-57.066 22.449-42.621-0.94531-77.289-36.418-77.289-79.039 0-33.578 21.312-63.602 52.992-74.684 6.0156-2.1328 11.176-5.918 14.871-10.988l0.14062-0.1875c3.8359-5.2578 5.8711-11.508 5.8711-18.043v-18.375h10.465v18.375c0 6.5352 2.0352 12.738 5.8711 18.043l0.14062 0.1875c3.6953 5.1133 8.8086 8.9023 14.777 10.941 31.777 11.082 53.137 41.152 53.09 74.824-0.13672 21.449-8.5664 41.531-23.863 56.496z"/>
  <path d="m403.56 317.47c-8.7148-3.6953-17.996-5.5391-27.562-5.5391s-18.801 1.8945-27.562 5.5391c-8.4297 3.5508-16.008 8.668-22.496 15.156-6.4883 6.4883-11.602 14.066-15.156 22.496-3.6953 8.7148-5.5391 17.996-5.5391 27.562s1.8945 18.801 5.5391 27.562c3.5508 8.4297 8.668 16.008 15.156 22.496 6.4883 6.4883 14.066 11.602 22.496 15.156 8.7148 3.6953 17.996 5.5391 27.562 5.5391s18.801-1.8945 27.562-5.5391c8.4297-3.5508 16.008-8.668 22.496-15.156 6.4883-6.4883 11.602-14.066 15.156-22.496 3.6953-8.7148 5.5391-17.996 5.5391-27.562s-1.8945-18.801-5.5391-27.562c-3.5508-8.4297-8.668-16.008-15.156-22.496-6.5352-6.4922-14.113-11.605-22.496-15.156zm25.34 47.973c0.56641 1.7031 2.1328 2.793 3.8359 2.793 0.42578 0 0.85156-0.046875 1.2305-0.1875l2.793-0.89844c1.2773 4.9727 1.9414 10.184 1.9414 15.535 0 5.3516-0.66406 10.562-1.9414 15.535l-2.793-0.89844c-2.1328-0.66406-4.3555 0.47266-5.0664 2.5586-0.66406 2.1328 0.47266 4.3555 2.5586 5.0664l2.793 0.89844c-3.9297 9.8047-10.23 18.422-18.281 25.102l-1.7031-2.3672c-1.3242-1.8008-3.8359-2.1797-5.5898-0.89844-1.8008 1.3242-2.1797 3.8359-0.89844 5.5898l1.7031 2.3672c-8.6211 5.4922-18.707 8.9023-29.504 9.6133v-2.9453c0-2.2266-1.8008-4.0273-4.0273-4.0273s-4.0273 1.8008-4.0273 4.0273v2.9375c-10.797-0.66406-20.887-4.1211-29.504-9.6133l1.7031-2.3672c1.3242-1.8008 0.89844-4.3086-0.89844-5.5898-1.8008-1.3242-4.3086-0.89844-5.5898 0.89844l-1.7031 2.3672c-8.0039-6.6758-14.348-15.25-18.281-25.102l2.793-0.89844c2.1328-0.66406 3.2695-2.9375 2.5586-5.0664-0.66406-2.1328-2.9375-3.2695-5.0664-2.5586l-2.793 0.89844c-1.2773-4.9727-1.9414-10.184-1.9414-15.535 0-5.3516 0.66406-10.562 1.9414-15.535l2.793 0.89844c0.42578 0.14063 0.85156 0.1875 1.2305 0.1875 1.7031 0 3.2695-1.0898 3.8359-2.793 0.66406-2.1328-0.47266-4.3555-2.5586-5.0664l-2.793-0.89844c3.9297-9.8047 10.23-18.422 18.281-25.102l1.7031 2.3672c0.80469 1.0898 1.9883 1.6562 3.2695 1.6562 0.80469 0 1.6562-0.23828 2.3672-0.75781 1.8008-1.3242 2.1797-3.8359 0.89844-5.5898l-1.7031-2.3672c8.6211-5.4922 18.707-8.9023 29.504-9.6133v2.9375c0 2.2266 1.8008 4.0273 4.0273 4.0273s4.0273-1.8008 4.0273-4.0273v-2.9375c10.797 0.66406 20.887 4.1211 29.504 9.6133l-1.7031 2.3672c-1.3242 1.8008-0.89844 4.3086 0.89844 5.5898 0.71094 0.51953 1.5625 0.75781 2.3672 0.75781 1.2305 0 2.4609-0.56641 3.2695-1.6562l1.7031-2.3672c8.0039 6.6758 14.348 15.25 18.281 25.102l-2.793 0.89844c-2.1797 0.71484-3.3633 2.9883-2.6523 5.0742z"/>
  <path d="m380.03 368.38v-32.395c0-2.2266-1.8008-4.0273-4.0273-4.0273s-4.0273 1.8008-4.0273 4.0273v32.395c-6.25 1.7539-10.844 7.4844-10.844 14.301 0 8.1914 6.6758 14.824 14.824 14.824 8.1445 0 14.824-6.6758 14.824-14.824 0.046875-6.8164-4.5-12.547-10.75-14.301zm-4.0273 21.074c-3.7422 0-6.8203-3.0312-6.8203-6.8203 0-3.7422 3.0312-6.8203 6.8203-6.8203s6.8203 3.0312 6.8203 6.8203c0 3.793-3.0781 6.8203-6.8203 6.8203z"/>
 </g>
</svg>
